<svg width="24" height="24" viewBox="0 0 24 24" fill="none" xmlns="http://www.w3.org/2000/svg">
<path d="M11.1523 1.4894C11.5291 0.836865 12.4709 0.836866 12.8477 1.4894L23.8674 20.5761C24.2441 21.2287 23.7732 22.0443 23.0197 22.0443H0.980266C0.22678 22.0443 -0.244147 21.2287 0.132596 20.5761L11.1523 1.4894Z" fill="#CDD1D6"/>
<path d="M12.9336 15.2201L13.2468 8.17273H10.8507L11.1796 15.2201H12.9336ZM12.0566 18.7752C12.7457 18.7752 13.3251 18.1957 13.3251 17.5223C13.3251 16.8332 12.7457 16.2538 12.0566 16.2538C11.3675 16.2538 10.8037 16.8332 10.8037 17.5223C10.8037 18.1957 11.3675 18.7752 12.0566 18.7752Z" fill="white"/>
</svg>
